<?xml version="1.0" encoding="UTF-8" standalone="no"?>
<!DOCTYPE svg PUBLIC "-//W3C//DTD SVG 1.1//EN" "http://www.w3.org/Graphics/SVG/1.1/DTD/svg11.dtd">
<svg width="160" height="160" viewBox="0 0 1024 1024" version="1.1" xmlns="http://www.w3.org/2000/svg" xmlns:xlink="http://www.w3.org/1999/xlink" xml:space="preserve" xmlns:serif="http://www.serif.com/" style="fill-rule:evenodd;clip-rule:evenodd;stroke-linecap:round;stroke-linejoin:round;stroke-miterlimit:1.5;">
    <g transform="matrix(1,0,0,1,-6350,-121)">
        <g transform="matrix(0.658027,0,0,1.1433,6012,0)">
            <g transform="matrix(1,0,0,1,-51.6696,-55.1035)">
                <g>
                    <g transform="matrix(0.740359,0,0,0.740359,733.258,226.44)">
                        <g transform="matrix(1.51969,0,0,0.874659,0,0)">
                            <path d="M781.332,1155C689.973,1154.35 645.915,1141.81 611.997,1110.01C569.512,1070.18 485.799,936.493 488.02,827.662C491.207,671.501 567.535,624.909 583.531,559.799C594.043,517.013 583.997,484.189 583.997,437C583.997,326.617 673.166,237 782.997,237L783.499,237.001L784,237C893.831,237 983,326.617 983,437C983,484.189 972.954,517.013 983.466,559.799C999.462,624.909 1075.79,671.501 1078.98,827.662C1081.2,936.493 997.485,1070.18 955,1110.01C920.816,1142.06 876.331,1154.55 783.499,1155.01L781.332,1155Z" style="fill:rgb(255,8,8);"/>
                            <clipPath id="_clip1">
                                <path d="M781.332,1155C689.973,1154.35 645.915,1141.81 611.997,1110.01C569.512,1070.18 485.799,936.493 488.02,827.662C491.207,671.501 567.535,624.909 583.531,559.799C594.043,517.013 583.997,484.189 583.997,437C583.997,326.617 673.166,237 782.997,237L783.499,237.001L784,237C893.831,237 983,326.617 983,437C983,484.189 972.954,517.013 983.466,559.799C999.462,624.909 1075.79,671.501 1078.98,827.662C1081.2,936.493 997.485,1070.18 955,1110.01C920.816,1142.06 876.331,1154.55 783.499,1155.01L781.332,1155Z"/>
                            </clipPath>
                            <g clip-path="url(#_clip1)">
                                <g transform="matrix(0.934408,0,0,0.934408,-6072.97,554.538)">
                                    <path d="M7376.02,588.095C7376.93,535.8 7419.67,493.625 7472.19,493.625C7478.4,493.625 7484.47,494.215 7490.36,495.343C7489.44,547.639 7446.7,589.813 7394.19,589.813C7387.98,589.813 7381.9,589.223 7376.02,588.095Z" style="fill:rgb(30,148,0);stroke:black;stroke-width:8.03px;"/>
                                </g>
                                <g transform="matrix(-0.934408,0,0,0.934408,7639.96,554.538)">
                                    <path d="M7376.02,588.095C7376.93,535.8 7419.67,493.625 7472.19,493.625C7478.4,493.625 7484.47,494.215 7490.36,495.343C7489.44,547.639 7446.7,589.813 7394.19,589.813C7387.98,589.813 7381.9,589.223 7376.02,588.095Z" style="fill:rgb(30,148,0);stroke:black;stroke-width:8.03px;"/>
                                </g>
                                <g transform="matrix(0.658027,0,0,1.1433,-769.999,-123)">
                                    <g transform="matrix(1.51969,0,0,0.874659,-9169.83,306.272)">
                                        <path d="M7609.06,515.985C7606.34,509.333 7596.92,493.839 7587.5,493.839C7578.08,493.839 7568.66,509.333 7565.94,515.985C7560.11,530.226 7563.98,573.655 7574.09,601.432C7563.98,573.655 7539.03,537.897 7525.41,530.734C7518.92,527.317 7501.3,521.049 7494.02,527.344C7487.05,533.374 7490.24,551.755 7492.38,558.453C7497.07,573.109 7527.95,603.888 7553.55,618.668C7527.95,603.888 7485.86,592.533 7470.82,595.799C7463.43,597.404 7446.35,603.944 7444.99,613.745C7443.76,622.581 7457.57,634.63 7463.33,638.267C7476.34,646.48 7519.78,650.207 7548.9,645.074C7519.78,650.207 7480.24,668.568 7470.82,680.736C7466.1,686.832 7457.55,703.691 7463.03,712.149C7467.77,719.461 7485.78,718.979 7492.38,718.082C7507.63,716.008 7543.3,690.94 7562.3,668.296C7543.3,690.94 7524.81,730.425 7525.41,745.801C7525.7,753.137 7527.75,771.81 7536.84,774.962C7545.54,777.982 7561.21,765.755 7565.94,760.55C7576.28,749.161 7587.5,707.026 7587.5,677.467C7587.5,707.026 7598.71,749.161 7609.06,760.55C7613.91,765.89 7627.96,778.221 7636.84,774.962C7645.65,771.729 7649.3,752.954 7649.58,745.801C7650.19,730.425 7631.7,690.94 7612.69,668.296C7631.7,690.94 7667.37,716.008 7682.62,718.082C7689.85,719.065 7709.57,718.35 7714.26,710.014C7718.81,701.934 7708.51,686.33 7704.18,680.736C7694.76,668.568 7655.21,650.207 7626.1,645.074C7655.21,650.207 7698.65,646.48 7711.67,638.267C7717.41,634.641 7731.22,623.637 7730.01,614.827C7728.67,604.997 7711.59,597.408 7704.18,595.799C7689.14,592.533 7647.05,603.888 7621.45,618.668C7647.05,603.888 7677.93,573.109 7682.62,558.453C7684.81,551.608 7688.73,533.005 7681.51,526.951C7674.3,520.896 7655.94,527.388 7649.58,530.734C7635.96,537.897 7611.02,573.655 7600.91,601.432C7611.02,573.655 7614.89,530.226 7609.06,515.985Z" style="fill:rgb(255,196,22);stroke:black;stroke-width:7.7px;"/>
                                    </g>
                                    <g transform="matrix(1.51969,0,0,0.874659,-9169.83,306.272)">
                                        <circle cx="7587.5" cy="638.267" r="32.4" style="fill:white;stroke:black;stroke-width:7.7px;"/>
                                    </g>
                                </g>
                                <g transform="matrix(0.48997,0,0,0.851308,-106.562,233.386)">
                                    <g transform="matrix(1.51969,0,0,0.874659,-9169.83,306.272)">
                                        <path d="M7609.06,515.985C7606.34,509.333 7596.92,493.839 7587.5,493.839C7578.08,493.839 7568.66,509.333 7565.94,515.985C7560.11,530.226 7563.98,573.655 7574.09,601.432C7563.98,573.655 7539.03,537.897 7525.41,530.734C7518.92,527.317 7501.3,521.049 7494.02,527.344C7487.05,533.374 7490.24,551.755 7492.38,558.453C7497.07,573.109 7527.95,603.888 7553.55,618.668C7527.95,603.888 7485.86,592.533 7470.82,595.799C7463.43,597.404 7446.35,603.944 7444.99,613.745C7443.76,622.581 7457.57,634.63 7463.33,638.267C7476.34,646.48 7519.78,650.207 7548.9,645.074C7519.78,650.207 7480.24,668.568 7470.82,680.736C7466.1,686.832 7457.55,703.691 7463.03,712.149C7467.77,719.461 7485.78,718.979 7492.38,718.082C7507.63,716.008 7543.3,690.94 7562.3,668.296C7543.3,690.94 7524.81,730.425 7525.41,745.801C7525.7,753.137 7527.75,771.81 7536.84,774.962C7545.54,777.982 7561.21,765.755 7565.94,760.55C7576.28,749.161 7587.5,707.026 7587.5,677.467C7587.5,707.026 7598.71,749.161 7609.06,760.55C7613.91,765.89 7627.96,778.221 7636.84,774.962C7645.65,771.729 7649.3,752.954 7649.58,745.801C7650.19,730.425 7631.7,690.94 7612.69,668.296C7631.7,690.94 7667.37,716.008 7682.62,718.082C7689.85,719.065 7709.57,718.35 7714.26,710.014C7718.81,701.934 7708.51,686.33 7704.18,680.736C7694.76,668.568 7655.21,650.207 7626.1,645.074C7655.21,650.207 7698.65,646.48 7711.67,638.267C7717.41,634.641 7731.22,623.637 7730.01,614.827C7728.67,604.997 7711.59,597.408 7704.18,595.799C7689.14,592.533 7647.05,603.888 7621.45,618.668C7647.05,603.888 7677.93,573.109 7682.62,558.453C7684.81,551.608 7688.73,533.005 7681.51,526.951C7674.3,520.896 7655.94,527.388 7649.58,530.734C7635.96,537.897 7611.02,573.655 7600.91,601.432C7611.02,573.655 7614.89,530.226 7609.06,515.985Z" style="fill:rgb(255,196,22);stroke:black;stroke-width:10.34px;"/>
                                    </g>
                                    <g transform="matrix(1.51969,0,0,0.874659,-9169.83,306.272)">
                                        <circle cx="7587.5" cy="638.267" r="32.4" style="fill:white;stroke:black;stroke-width:10.34px;"/>
                                    </g>
                                </g>
                            </g>
                            <path d="M781.332,1155C689.973,1154.35 645.915,1141.81 611.997,1110.01C569.512,1070.18 485.799,936.493 488.02,827.662C491.207,671.501 567.535,624.909 583.531,559.799C594.043,517.013 583.997,484.189 583.997,437C583.997,326.617 673.166,237 782.997,237L783.499,237.001L784,237C893.831,237 983,326.617 983,437C983,484.189 972.954,517.013 983.466,559.799C999.462,624.909 1075.79,671.501 1078.98,827.662C1081.2,936.493 997.485,1070.18 955,1110.01C920.816,1142.06 876.331,1154.55 783.499,1155.01L781.332,1155Z" style="fill:none;stroke:black;stroke-width:7.7px;"/>
                        </g>
                        <g transform="matrix(1.61262,0,0,0.837008,-139.737,2.69928)">
                            <ellipse cx="825" cy="455" rx="139" ry="151" style="fill:rgb(255,228,202);stroke:black;stroke-width:7.62px;"/>
                        </g>
                        <g transform="matrix(1.61262,0,0,0.837008,-139.737,2.69928)">
                            <ellipse cx="825" cy="455" rx="139" ry="151" style="fill:none;"/>
                            <clipPath id="_clip2">
                                <ellipse cx="825" cy="455" rx="139" ry="151"/>
                            </clipPath>
                            <g clip-path="url(#_clip2)">
                                <g transform="matrix(0.975998,0,0,1.03901,19.8017,-22.8146)">
                                    <g transform="matrix(0.620107,0,0,1.19473,86.6521,-3.22491)">
                                        <g transform="matrix(3.3331,0,0,1.35374,-21359.5,-171.308)">
                                            <path d="M6765.53,465.554C6767.09,463.323 6769.82,462.511 6769.82,462.511C6769.82,462.511 6773.27,463.87 6775.28,465.305C6777.06,466.57 6786.6,466.446 6786.6,466.446C6786.6,466.446 6781.96,473.917 6779.84,475.755C6776.7,478.477 6770.3,483.067 6765.53,483.067C6760.75,483.067 6754.43,479.186 6751.21,475.755C6749.09,473.501 6744.26,466.212 6744.26,466.212C6744.26,466.212 6753.29,467.088 6755.01,465.868C6757.13,464.352 6761.25,462.727 6761.25,462.727C6761.25,462.727 6764.07,463.487 6765.53,465.554Z" style="fill:rgb(255,0,0);"/>
                                        </g>
                                        <g transform="matrix(1.97244,0,0,0.735518,-12149.2,133.148)">
                                            <path d="M6800.44,441.951C6793.79,448.06 6783.45,455.157 6763.11,455.157C6742.76,455.157 6732.83,450.03 6726.11,442.159" style="fill:none;stroke:black;stroke-width:1.33px;"/>
                                        </g>
                                    </g>
                                    <g transform="matrix(0.620107,0,0,1.19473,120.854,56.3535)">
                                        <g transform="matrix(2.80136,0,0,1.61232,-17895.5,-324.309)">
                                            <circle cx="6825.7" cy="420.227" r="8.626"/>
                                        </g>
                                        <g transform="matrix(2.80136,0,0,1.61232,-18076,-324.309)">
                                            <circle cx="6825.7" cy="420.227" r="8.626"/>
                                        </g>
                                        <g>
                                            <g transform="matrix(1.51969,0,0,0.874659,-9327.44,8.88178e-16)">
                                                <path d="M6772.75,396.808C6776.2,403.542 6785.44,402.943 6787.8,402.065C6798.02,398.269 6809.26,388.737 6822.06,388.737C6837.82,388.737 6851.53,394.972 6858.44,404.118" style="fill:none;stroke:black;stroke-width:6px;"/>
                                            </g>
                                            <g transform="matrix(1.51969,0,0,0.874659,-9139.88,5.23588)">
                                                <path d="M6672.86,392.036C6672.86,392.036 6662.08,390.369 6659.1,385.475" style="fill:none;stroke:black;stroke-width:6px;"/>
                                            </g>
                                            <g transform="matrix(1.51969,0,0,0.874659,-9139.88,5.23588)">
                                                <path d="M6682.85,386.863C6682.85,386.863 6674.25,385.93 6670.46,379.917" style="fill:none;stroke:black;stroke-width:6px;"/>
                                            </g>
                                        </g>
                                        <g transform="matrix(-1,0,0,1,2269.32,0)">
                                            <g transform="matrix(1.51969,0,0,0.874659,-9327.44,8.88178e-16)">
                                                <path d="M6772.75,396.808C6776.2,403.542 6785.44,402.943 6787.8,402.065C6798.02,398.269 6809.26,388.737 6822.06,388.737C6837.82,388.737 6851.53,394.972 6858.44,404.118" style="fill:none;stroke:black;stroke-width:6px;"/>
                                            </g>
                                            <g transform="matrix(1.51969,0,0,0.874659,-9139.88,5.23588)">
                                                <path d="M6672.86,392.036C6672.86,392.036 6662.08,390.369 6659.1,385.475" style="fill:none;stroke:black;stroke-width:6px;"/>
                                            </g>
                                            <g transform="matrix(1.51969,0,0,0.874659,-9139.88,5.23588)">
                                                <path d="M6682.85,386.863C6682.85,386.863 6674.25,385.93 6670.46,379.917" style="fill:none;stroke:black;stroke-width:6px;"/>
                                            </g>
                                        </g>
                                        <g transform="matrix(2.07692,-0.214984,0.302551,0.968226,-13260.8,1400.67)">
                                            <path d="M6785.68,404.118C6792.59,394.972 6806.3,388.737 6822.06,388.737C6837.82,388.737 6851.53,394.972 6858.44,404.118" style="fill:none;stroke:black;stroke-width:6.17px;"/>
                                        </g>
                                        <g transform="matrix(-2.07692,-0.214984,-0.302551,0.968226,15531.8,1400.67)">
                                            <path d="M6785.68,404.118C6792.59,394.972 6806.3,388.737 6822.06,388.737C6837.82,388.737 6851.53,394.972 6858.44,404.118" style="fill:none;stroke:black;stroke-width:6.17px;"/>
                                        </g>
                                    </g>
                                </g>
                                <g transform="matrix(1.39067,0,0,1.52281,-8561.47,-146.599)">
                                    <ellipse cx="6685.69" cy="429.373" rx="12.686" ry="11.295" style="fill:rgb(255,0,0);"/>
                                </g>
                                <g transform="matrix(1.39067,0,0,1.52281,-8384.06,-146.599)">
                                    <ellipse cx="6685.69" cy="429.373" rx="12.686" ry="11.295" style="fill:rgb(255,0,0);"/>
                                </g>
                                <g transform="matrix(0.975998,0,0,1.03901,19.8017,-22.8146)">
                                    <g transform="matrix(0.942373,0,0,1.04498,-5532.92,67.8339)">
                                        <ellipse cx="6740.76" cy="432.201" rx="3.572" ry="3.573"/>
                                    </g>
                                    <g transform="matrix(0.942373,0,0,1.04498,-5521.69,67.8339)">
                                        <ellipse cx="6740.76" cy="432.201" rx="3.572" ry="3.573"/>
                                    </g>
                                </g>
                                <g transform="matrix(1,0,0,1,-139,-175.187)">
                                    <ellipse cx="825" cy="455" rx="139" ry="151" style="fill:rgb(255,206,0);stroke:black;stroke-width:7.62px;"/>
                                </g>
                                <g transform="matrix(1,0,0,1,93.2949,-155.332)">
                                    <ellipse cx="825" cy="455" rx="139" ry="151" style="fill:rgb(255,206,0);stroke:black;stroke-width:7.62px;"/>
                                </g>
                            </g>
                            <ellipse cx="825" cy="455" rx="139" ry="151" style="fill:none;stroke:black;stroke-width:7.62px;"/>
                        </g>
                        <g transform="matrix(1.51969,0,0,0.874659,-9136.4,0)">
                            <path d="M6511.4,738.854C6533.97,650.023 6583.07,610.533 6595.53,559.799C6606.04,517.013 6596,484.189 6596,437C6596,326.617 6685.17,237 6795,237L6796,237C6905.83,237 6995,326.617 6995,437C6995,484.189 6984.95,517.013 6995.47,559.799C7007.93,610.533 7057.03,650.023 7079.6,738.854L7079.3,737.664C7055.16,745.774 7028.72,750.251 7001,750.251C6887.58,750.251 6795.5,675.308 6795.5,583C6795.5,675.308 6703.42,750.251 6590,750.251C6562.28,750.251 6535.83,745.774 6511.7,737.664L6511.4,738.854ZM6795.5,294C6876.91,294 6943,358.748 6943,438.5C6943,518.252 6876.91,583 6795.5,583C6714.09,583 6648,518.252 6648,438.5C6648,358.748 6714.09,294 6795.5,294Z" style="fill:rgb(30,148,0);"/>
                            <clipPath id="_clip3">
                                <path d="M6511.4,738.854C6533.97,650.023 6583.07,610.533 6595.53,559.799C6606.04,517.013 6596,484.189 6596,437C6596,326.617 6685.17,237 6795,237L6796,237C6905.83,237 6995,326.617 6995,437C6995,484.189 6984.95,517.013 6995.47,559.799C7007.93,610.533 7057.03,650.023 7079.6,738.854L7079.3,737.664C7055.16,745.774 7028.72,750.251 7001,750.251C6887.58,750.251 6795.5,675.308 6795.5,583C6795.5,675.308 6703.42,750.251 6590,750.251C6562.28,750.251 6535.83,745.774 6511.7,737.664L6511.4,738.854ZM6795.5,294C6876.91,294 6943,358.748 6943,438.5C6943,518.252 6876.91,583 6795.5,583C6714.09,583 6648,518.252 6648,438.5C6648,358.748 6714.09,294 6795.5,294Z"/>
                            </clipPath>
                            <g clip-path="url(#_clip3)">
                                <g transform="matrix(0.567095,0,0,0.567095,2547.75,303.068)">
                                    <path d="M7376.02,588.095C7376.93,535.8 7419.67,493.625 7472.19,493.625C7478.4,493.625 7484.47,494.215 7490.36,495.343C7489.44,547.639 7446.7,589.813 7394.19,589.813C7387.98,589.813 7381.9,589.223 7376.02,588.095Z" style="fill:rgb(30,148,0);stroke:black;stroke-width:13.23px;"/>
                                </g>
                                <g transform="matrix(-0.567095,0,0,0.567095,11043.2,303.068)">
                                    <path d="M7376.02,588.095C7376.93,535.8 7419.67,493.625 7472.19,493.625C7478.4,493.625 7484.47,494.215 7490.36,495.343C7489.44,547.639 7446.7,589.813 7394.19,589.813C7387.98,589.813 7381.9,589.223 7376.02,588.095Z" style="fill:rgb(30,148,0);stroke:black;stroke-width:13.23px;"/>
                                </g>
                            </g>
                            <path d="M6511.4,738.854C6533.97,650.023 6583.07,610.533 6595.53,559.799C6606.04,517.013 6596,484.189 6596,437C6596,326.617 6685.17,237 6795,237L6796,237C6905.83,237 6995,326.617 6995,437C6995,484.189 6984.95,517.013 6995.47,559.799C7007.93,610.533 7057.03,650.023 7079.6,738.854L7079.3,737.664C7055.16,745.774 7028.72,750.251 7001,750.251C6887.58,750.251 6795.5,675.308 6795.5,583C6795.5,675.308 6703.42,750.251 6590,750.251C6562.28,750.251 6535.83,745.774 6511.7,737.664L6511.4,738.854ZM6795.5,294C6876.91,294 6943,358.748 6943,438.5C6943,518.252 6876.91,583 6795.5,583C6714.09,583 6648,518.252 6648,438.5C6648,358.748 6714.09,294 6795.5,294Z" style="fill:none;stroke:black;stroke-width:7.7px;"/>
                        </g>
                        <g>
                            <g transform="matrix(1.51969,0,0,0.874659,-9.09495e-13,0)">
                                <path d="M774.135,241.621C787.671,241.356 855.014,243.735 849.398,263.957C843.801,284.113 791.674,275.287 783.499,275.287C766.374,275.287 746.847,274.929 727.667,281.832C705.81,289.7 652.547,286.141 693.235,263.865C720.868,248.737 757.535,241.945 774.135,241.621Z" style="fill:white;fill-opacity:0.36;"/>
                            </g>
                            <g transform="matrix(1.371,-0.0985117,0.0933538,0.430375,-8058.31,588.549)">
                                <ellipse cx="6675.84" cy="676.003" rx="27.843" ry="20.003" style="fill:white;"/>
                            </g>
                            <g transform="matrix(2.05264,0,0,1.1814,-13261.1,-231.423)">
                                <path d="M7017.28,838.134C7037.56,799.38 7011.52,661.176 7001.72,661.176C6952.65,661.176 6924.85,544.07 6938.95,471.347C6948.98,419.623 6997.28,395.292 6997.28,429.258C6997.28,464.195 6989.84,488.497 6997.62,520.173C7006.85,557.735 7056.51,606.834 7071.91,638.738C7081.49,658.584 7093.92,687.736 7101.02,708.598C7109.02,732.137 7123.25,762.922 7116.97,795.972C7104.84,859.738 7084.58,924.121 7053.12,965.66L7053.77,965.495C7109,951.285 7152.73,903.351 7179.28,852.597C7201.81,809.527 7213.03,768.595 7200.15,665.639C7218.81,696.733 7247.59,738.823 7248.97,806.435C7250.61,887.009 7190.86,980.805 7159.4,1010.29C7134.09,1034.02 7096.72,1039.56 7027.99,1039.91L7026.38,1039.9C6987.59,1039.62 6970.68,1032.01 6949.73,1024.91C6947.83,1024.27 6945.4,1022.69 6942.63,1020.44C6922.44,1024.04 6990.63,889.088 7017.28,838.134ZM7056.12,965.401L7056.3,965.397C7059.32,965.373 7043.56,968.068 7053.12,965.66L7053.65,965.603C7054.85,965.479 7055.65,965.416 7056.12,965.401Z" style="fill-opacity:0.31;"/>
                            </g>
                        </g>
                    </g>
                    <g>
                        <g transform="matrix(1.51969,0,0,0.874659,0,0)">
                            <path d="M781.332,1155C689.973,1154.35 645.915,1141.81 611.997,1110.01C569.512,1070.18 485.799,936.493 488.02,827.662C491.207,671.501 567.535,624.909 583.531,559.799C594.043,517.013 583.997,484.189 583.997,437C583.997,326.617 673.166,237 782.997,237L783.499,237.001L784,237C893.831,237 983,326.617 983,437C983,484.189 972.954,517.013 983.466,559.799C999.462,624.909 1075.79,671.501 1078.98,827.662C1081.2,936.493 997.485,1070.18 955,1110.01C920.816,1142.06 876.331,1154.55 783.499,1155.01L781.332,1155Z" style="fill:rgb(255,196,22);"/>
                            <clipPath id="_clip4">
                                <path d="M781.332,1155C689.973,1154.35 645.915,1141.81 611.997,1110.01C569.512,1070.18 485.799,936.493 488.02,827.662C491.207,671.501 567.535,624.909 583.531,559.799C594.043,517.013 583.997,484.189 583.997,437C583.997,326.617 673.166,237 782.997,237L783.499,237.001L784,237C893.831,237 983,326.617 983,437C983,484.189 972.954,517.013 983.466,559.799C999.462,624.909 1075.79,671.501 1078.98,827.662C1081.2,936.493 997.485,1070.18 955,1110.01C920.816,1142.06 876.331,1154.55 783.499,1155.01L781.332,1155Z"/>
                            </clipPath>
                            <g clip-path="url(#_clip4)">
                                <g transform="matrix(0.934408,0,0,0.934408,-6072.97,554.538)">
                                    <path d="M7376.02,588.095C7376.93,535.8 7419.67,493.625 7472.19,493.625C7478.4,493.625 7484.47,494.215 7490.36,495.343C7489.44,547.639 7446.7,589.813 7394.19,589.813C7387.98,589.813 7381.9,589.223 7376.02,588.095Z" style="fill:rgb(30,148,0);stroke:black;stroke-width:8.03px;"/>
                                </g>
                                <g transform="matrix(-0.934408,0,0,0.934408,7639.96,554.538)">
                                    <path d="M7376.02,588.095C7376.93,535.8 7419.67,493.625 7472.19,493.625C7478.4,493.625 7484.47,494.215 7490.36,495.343C7489.44,547.639 7446.7,589.813 7394.19,589.813C7387.98,589.813 7381.9,589.223 7376.02,588.095Z" style="fill:rgb(30,148,0);stroke:black;stroke-width:8.03px;"/>
                                </g>
                                <g transform="matrix(0.658027,0,0,1.1433,-769.999,-123)">
                                    <g transform="matrix(1.51969,0,0,0.874659,-9169.83,306.272)">
                                        <path d="M7609.06,515.985C7606.34,509.333 7596.92,493.839 7587.5,493.839C7578.08,493.839 7568.66,509.333 7565.94,515.985C7560.11,530.226 7563.98,573.655 7574.09,601.432C7563.98,573.655 7539.03,537.897 7525.41,530.734C7518.92,527.317 7501.3,521.049 7494.02,527.344C7487.05,533.374 7490.24,551.755 7492.38,558.453C7497.07,573.109 7527.95,603.888 7553.55,618.668C7527.95,603.888 7485.86,592.533 7470.82,595.799C7463.43,597.404 7446.35,603.944 7444.99,613.745C7443.76,622.581 7457.57,634.63 7463.33,638.267C7476.34,646.48 7519.78,650.207 7548.9,645.074C7519.78,650.207 7480.24,668.568 7470.82,680.736C7466.1,686.832 7457.55,703.691 7463.03,712.149C7467.77,719.461 7485.78,718.979 7492.38,718.082C7507.63,716.008 7543.3,690.94 7562.3,668.296C7543.3,690.94 7524.81,730.425 7525.41,745.801C7525.7,753.137 7527.75,771.81 7536.84,774.962C7545.54,777.982 7561.21,765.755 7565.94,760.55C7576.28,749.161 7587.5,707.026 7587.5,677.467C7587.5,707.026 7598.71,749.161 7609.06,760.55C7613.91,765.89 7627.96,778.221 7636.84,774.962C7645.65,771.729 7649.3,752.954 7649.58,745.801C7650.19,730.425 7631.7,690.94 7612.69,668.296C7631.7,690.94 7667.37,716.008 7682.62,718.082C7689.85,719.065 7709.57,718.35 7714.26,710.014C7718.81,701.934 7708.51,686.33 7704.18,680.736C7694.76,668.568 7655.21,650.207 7626.1,645.074C7655.21,650.207 7698.65,646.48 7711.67,638.267C7717.41,634.641 7731.22,623.637 7730.01,614.827C7728.67,604.997 7711.59,597.408 7704.18,595.799C7689.14,592.533 7647.05,603.888 7621.45,618.668C7647.05,603.888 7677.93,573.109 7682.62,558.453C7684.81,551.608 7688.73,533.005 7681.51,526.951C7674.3,520.896 7655.94,527.388 7649.58,530.734C7635.96,537.897 7611.02,573.655 7600.91,601.432C7611.02,573.655 7614.89,530.226 7609.06,515.985Z" style="fill:rgb(255,0,0);stroke:black;stroke-width:7.5px;"/>
                                    </g>
                                    <g transform="matrix(1.51969,0,0,0.874659,-9169.83,306.272)">
                                        <circle cx="7587.5" cy="638.267" r="32.4" style="fill:rgb(255,196,22);stroke:black;stroke-width:7.5px;"/>
                                    </g>
                                </g>
                                <g transform="matrix(0.48997,0,0,0.851308,-106.562,233.386)">
                                    <g transform="matrix(1.51969,0,0,0.874659,-9169.83,306.272)">
                                        <path d="M7609.06,515.985C7606.34,509.333 7596.92,493.839 7587.5,493.839C7578.08,493.839 7568.66,509.333 7565.94,515.985C7560.11,530.226 7563.98,573.655 7574.09,601.432C7563.98,573.655 7539.03,537.897 7525.41,530.734C7518.92,527.317 7501.3,521.049 7494.02,527.344C7487.05,533.374 7490.24,551.755 7492.38,558.453C7497.07,573.109 7527.95,603.888 7553.55,618.668C7527.95,603.888 7485.86,592.533 7470.82,595.799C7463.43,597.404 7446.35,603.944 7444.99,613.745C7443.76,622.581 7457.57,634.63 7463.33,638.267C7476.34,646.48 7519.78,650.207 7548.9,645.074C7519.78,650.207 7480.24,668.568 7470.82,680.736C7466.1,686.832 7457.55,703.691 7463.03,712.149C7467.77,719.461 7485.78,718.979 7492.38,718.082C7507.63,716.008 7543.3,690.94 7562.3,668.296C7543.3,690.94 7524.81,730.425 7525.41,745.801C7525.7,753.137 7527.75,771.81 7536.84,774.962C7545.54,777.982 7561.21,765.755 7565.94,760.55C7576.28,749.161 7587.5,707.026 7587.5,677.467C7587.5,707.026 7598.71,749.161 7609.06,760.55C7613.91,765.89 7627.96,778.221 7636.84,774.962C7645.65,771.729 7649.3,752.954 7649.58,745.801C7650.19,730.425 7631.7,690.94 7612.69,668.296C7631.7,690.94 7667.37,716.008 7682.62,718.082C7689.85,719.065 7709.57,718.35 7714.26,710.014C7718.81,701.934 7708.51,686.33 7704.18,680.736C7694.76,668.568 7655.21,650.207 7626.1,645.074C7655.21,650.207 7698.65,646.48 7711.67,638.267C7717.41,634.641 7731.22,623.637 7730.01,614.827C7728.67,604.997 7711.59,597.408 7704.18,595.799C7689.14,592.533 7647.05,603.888 7621.45,618.668C7647.05,603.888 7677.93,573.109 7682.62,558.453C7684.81,551.608 7688.73,533.005 7681.51,526.951C7674.3,520.896 7655.94,527.388 7649.58,530.734C7635.96,537.897 7611.02,573.655 7600.91,601.432C7611.02,573.655 7614.89,530.226 7609.06,515.985Z" style="fill:rgb(255,0,0);stroke:black;stroke-width:10.07px;"/>
                                    </g>
                                    <g transform="matrix(1.51969,0,0,0.874659,-9169.83,306.272)">
                                        <circle cx="7587.5" cy="638.267" r="32.4" style="fill:rgb(255,196,22);stroke:black;stroke-width:10.07px;"/>
                                    </g>
                                </g>
                                <g transform="matrix(0.48997,0,0,0.851308,-662.767,233.386)">
                                    <g transform="matrix(1.51969,0,0,0.874659,-9169.83,306.272)">
                                        <path d="M7609.06,515.985C7606.34,509.333 7596.92,493.839 7587.5,493.839C7578.08,493.839 7568.66,509.333 7565.94,515.985C7560.11,530.226 7563.98,573.655 7574.09,601.432C7563.98,573.655 7539.03,537.897 7525.41,530.734C7518.92,527.317 7501.3,521.049 7494.02,527.344C7487.05,533.374 7490.24,551.755 7492.38,558.453C7497.07,573.109 7527.95,603.888 7553.55,618.668C7527.95,603.888 7485.86,592.533 7470.82,595.799C7463.43,597.404 7446.35,603.944 7444.99,613.745C7443.76,622.581 7457.57,634.63 7463.33,638.267C7476.34,646.48 7519.78,650.207 7548.9,645.074C7519.78,650.207 7480.24,668.568 7470.82,680.736C7466.1,686.832 7457.55,703.691 7463.03,712.149C7467.77,719.461 7485.78,718.979 7492.38,718.082C7507.63,716.008 7543.3,690.94 7562.3,668.296C7543.3,690.94 7524.81,730.425 7525.41,745.801C7525.7,753.137 7527.75,771.81 7536.84,774.962C7545.54,777.982 7561.21,765.755 7565.94,760.55C7576.28,749.161 7587.5,707.026 7587.5,677.467C7587.5,707.026 7598.71,749.161 7609.06,760.55C7613.91,765.89 7627.96,778.221 7636.84,774.962C7645.65,771.729 7649.3,752.954 7649.58,745.801C7650.19,730.425 7631.7,690.94 7612.69,668.296C7631.7,690.94 7667.37,716.008 7682.62,718.082C7689.85,719.065 7709.57,718.35 7714.26,710.014C7718.81,701.934 7708.51,686.33 7704.18,680.736C7694.76,668.568 7655.21,650.207 7626.1,645.074C7655.21,650.207 7698.65,646.48 7711.67,638.267C7717.41,634.641 7731.22,623.637 7730.01,614.827C7728.67,604.997 7711.59,597.408 7704.18,595.799C7689.14,592.533 7647.05,603.888 7621.45,618.668C7647.05,603.888 7677.93,573.109 7682.62,558.453C7684.81,551.608 7688.73,533.005 7681.51,526.951C7674.3,520.896 7655.94,527.388 7649.58,530.734C7635.96,537.897 7611.02,573.655 7600.91,601.432C7611.02,573.655 7614.89,530.226 7609.06,515.985Z" style="fill:rgb(255,0,0);stroke:black;stroke-width:10.07px;"/>
                                    </g>
                                    <g transform="matrix(1.51969,0,0,0.874659,-9169.83,306.272)">
                                        <circle cx="7587.5" cy="638.267" r="32.4" style="fill:rgb(255,196,22);stroke:black;stroke-width:10.07px;"/>
                                    </g>
                                </g>
                            </g>
                            <path d="M781.332,1155C689.973,1154.35 645.915,1141.81 611.997,1110.01C569.512,1070.18 485.799,936.493 488.02,827.662C491.207,671.501 567.535,624.909 583.531,559.799C594.043,517.013 583.997,484.189 583.997,437C583.997,326.617 673.166,237 782.997,237L783.499,237.001L784,237C893.831,237 983,326.617 983,437C983,484.189 972.954,517.013 983.466,559.799C999.462,624.909 1075.79,671.501 1078.98,827.662C1081.2,936.493 997.485,1070.18 955,1110.01C920.816,1142.06 876.331,1154.55 783.499,1155.01L781.332,1155Z" style="fill:none;stroke:black;stroke-width:7.5px;"/>
                        </g>
                        <g transform="matrix(1.61262,0,0,0.837008,-139.737,2.69928)">
                            <ellipse cx="825" cy="455" rx="139" ry="151" style="fill:rgb(255,228,202);stroke:black;stroke-width:7.42px;"/>
                        </g>
                        <g transform="matrix(1.61262,0,0,0.837008,-139.737,2.69928)">
                            <ellipse cx="825" cy="455" rx="139" ry="151" style="fill:none;"/>
                            <clipPath id="_clip5">
                                <ellipse cx="825" cy="455" rx="139" ry="151"/>
                            </clipPath>
                            <g clip-path="url(#_clip5)">
                                <g>
                                    <g>
                                        <g transform="matrix(0.620107,0,0,1.19473,86.6521,-3.22491)">
                                            <g transform="matrix(3.3331,0,0,1.35374,-21359.5,-171.308)">
                                                <path d="M6765.53,465.554C6767.09,463.323 6769.82,462.511 6769.82,462.511C6769.82,462.511 6773.27,463.87 6775.28,465.305C6777.06,466.57 6786.6,466.446 6786.6,466.446C6786.6,466.446 6781.96,473.917 6779.84,475.755C6776.7,478.477 6770.3,483.067 6765.53,483.067C6760.75,483.067 6754.43,479.186 6751.21,475.755C6749.09,473.501 6744.26,466.212 6744.26,466.212C6744.26,466.212 6753.29,467.088 6755.01,465.868C6757.13,464.352 6761.25,462.727 6761.25,462.727C6761.25,462.727 6764.07,463.487 6765.53,465.554Z" style="fill:rgb(255,0,0);"/>
                                            </g>
                                            <g transform="matrix(1.97244,0,0,0.735518,-12149.2,133.148)">
                                                <path d="M6800.44,441.951C6793.79,448.06 6783.45,455.157 6763.11,455.157C6742.76,455.157 6732.83,450.03 6726.11,442.159" style="fill:none;stroke:black;stroke-width:1.33px;"/>
                                            </g>
                                        </g>
                                        <g transform="matrix(0.620107,0,0,1.19473,120.854,56.3535)">
                                            <g transform="matrix(2.80136,0,0,1.61232,-17895.5,-324.309)">
                                                <circle cx="6825.7" cy="420.227" r="8.626"/>
                                            </g>
                                            <g transform="matrix(2.80136,0,0,1.61232,-18076,-324.309)">
                                                <circle cx="6825.7" cy="420.227" r="8.626"/>
                                            </g>
                                            <g>
                                                <g transform="matrix(1.51969,0,0,0.874659,-9327.44,8.88178e-16)">
                                                    <path d="M6772.75,396.808C6776.2,403.542 6785.44,402.943 6787.8,402.065C6798.02,398.269 6809.26,388.737 6822.06,388.737C6837.82,388.737 6851.53,394.972 6858.44,404.118" style="fill:none;stroke:black;stroke-width:6px;"/>
                                                </g>
                                                <g transform="matrix(1.51969,0,0,0.874659,-9139.88,5.23588)">
                                                    <path d="M6672.86,392.036C6672.86,392.036 6662.08,390.369 6659.1,385.475" style="fill:none;stroke:black;stroke-width:6px;"/>
                                                </g>
                                                <g transform="matrix(1.51969,0,0,0.874659,-9139.88,5.23588)">
                                                    <path d="M6682.85,386.863C6682.85,386.863 6674.25,385.93 6670.46,379.917" style="fill:none;stroke:black;stroke-width:6px;"/>
                                                </g>
                                            </g>
                                            <g transform="matrix(-1,0,0,1,2269.32,0)">
                                                <g transform="matrix(1.51969,0,0,0.874659,-9327.44,8.88178e-16)">
                                                    <path d="M6772.75,396.808C6776.2,403.542 6785.44,402.943 6787.8,402.065C6798.02,398.269 6809.26,388.737 6822.06,388.737C6837.82,388.737 6851.53,394.972 6858.44,404.118" style="fill:none;stroke:black;stroke-width:6px;"/>
                                                </g>
                                                <g transform="matrix(1.51969,0,0,0.874659,-9139.88,5.23588)">
                                                    <path d="M6672.86,392.036C6672.86,392.036 6662.08,390.369 6659.1,385.475" style="fill:none;stroke:black;stroke-width:6px;"/>
                                                </g>
                                                <g transform="matrix(1.51969,0,0,0.874659,-9139.88,5.23588)">
                                                    <path d="M6682.85,386.863C6682.85,386.863 6674.25,385.93 6670.46,379.917" style="fill:none;stroke:black;stroke-width:6px;"/>
                                                </g>
                                            </g>
                                            <g transform="matrix(2.07692,-0.214984,0.302551,0.968226,-13260.8,1400.67)">
                                                <path d="M6785.68,404.118C6792.59,394.972 6806.3,388.737 6822.06,388.737C6837.82,388.737 6851.53,394.972 6858.44,404.118" style="fill:none;stroke:black;stroke-width:6.17px;"/>
                                            </g>
                                            <g transform="matrix(-2.07692,-0.214984,-0.302551,0.968226,15531.8,1400.67)">
                                                <path d="M6785.68,404.118C6792.59,394.972 6806.3,388.737 6822.06,388.737C6837.82,388.737 6851.53,394.972 6858.44,404.118" style="fill:none;stroke:black;stroke-width:6.17px;"/>
                                            </g>
                                        </g>
                                    </g>
                                    <g transform="matrix(1.42487,0,0,1.46563,-8792.3,-119.137)">
                                        <ellipse cx="6685.69" cy="429.373" rx="12.686" ry="11.295" style="fill:rgb(255,0,0);"/>
                                    </g>
                                    <g transform="matrix(1.42487,0,0,1.46563,-8610.53,-119.137)">
                                        <ellipse cx="6685.69" cy="429.373" rx="12.686" ry="11.295" style="fill:rgb(255,0,0);"/>
                                    </g>
                                    <g>
                                        <g transform="matrix(0.942373,0,0,1.04498,-5532.92,67.8339)">
                                            <ellipse cx="6740.76" cy="432.201" rx="3.572" ry="3.573"/>
                                        </g>
                                        <g transform="matrix(0.942373,0,0,1.04498,-5521.69,67.8339)">
                                            <ellipse cx="6740.76" cy="432.201" rx="3.572" ry="3.573"/>
                                        </g>
                                    </g>
                                </g>
                                <g transform="matrix(1,0,0,1,-139,-175.187)">
                                    <ellipse cx="825" cy="455" rx="139" ry="151" style="fill:rgb(255,206,0);stroke:black;stroke-width:7.42px;"/>
                                </g>
                                <g transform="matrix(1,0,0,1,93.2949,-155.332)">
                                    <ellipse cx="825" cy="455" rx="139" ry="151" style="fill:rgb(255,206,0);stroke:black;stroke-width:7.42px;"/>
                                </g>
                            </g>
                            <ellipse cx="825" cy="455" rx="139" ry="151" style="fill:none;stroke:black;stroke-width:10.39px;"/>
                        </g>
                        <g transform="matrix(1.51969,0,0,0.874659,-9136.4,0)">
                            <path d="M6511.4,738.854C6533.97,650.023 6583.07,610.533 6595.53,559.799C6606.04,517.013 6596,484.189 6596,437C6596,326.617 6685.17,237 6795,237L6796,237C6905.83,237 6995,326.617 6995,437C6995,484.189 6984.95,517.013 6995.47,559.799C7007.93,610.533 7057.03,650.023 7079.6,738.854L7079.3,737.664C7055.16,745.774 7028.72,750.251 7001,750.251C6887.58,750.251 6795.5,675.308 6795.5,583C6795.5,675.308 6703.42,750.251 6590,750.251C6562.28,750.251 6535.83,745.774 6511.7,737.664L6511.4,738.854ZM6795.5,294C6876.91,294 6943,358.748 6943,438.5C6943,518.252 6876.91,583 6795.5,583C6714.09,583 6648,518.252 6648,438.5C6648,358.748 6714.09,294 6795.5,294Z" style="fill:rgb(255,8,8);stroke:black;stroke-width:7.5px;"/>
                        </g>
                        <g transform="matrix(0.86181,0,0,0.496015,-5264.59,265.081)">
                            <path d="M7376.02,588.095C7376.93,535.8 7419.67,493.625 7472.19,493.625C7478.4,493.625 7484.47,494.215 7490.36,495.343C7489.44,547.639 7446.7,589.813 7394.19,589.813C7387.98,589.813 7381.9,589.223 7376.02,588.095Z" style="fill:rgb(255,8,8);stroke:black;stroke-width:13.23px;"/>
                        </g>
                        <g transform="matrix(-0.86181,0,0,0.496015,7645.95,265.081)">
                            <path d="M7376.02,588.095C7376.93,535.8 7419.67,493.625 7472.19,493.625C7478.4,493.625 7484.47,494.215 7490.36,495.343C7489.44,547.639 7446.7,589.813 7394.19,589.813C7387.98,589.813 7381.9,589.223 7376.02,588.095Z" style="fill:rgb(255,8,8);stroke:black;stroke-width:13.23px;"/>
                        </g>
                        <g>
                            <g transform="matrix(1.51969,0,0,0.874659,-9.09495e-13,0)">
                                <path d="M787,242C800.463,242.461 859.066,251.896 853.45,272.117C847.853,292.274 791.674,283.392 783.499,283.392C746.858,283.392 699.218,300.301 667.521,329.385C642.534,352.312 625.018,377.617 613.369,396.89C599.564,419.728 594.398,383.659 602.479,366.03C618.274,331.571 646.544,293.282 680.978,271.259C718.393,247.328 762.38,241.157 787,242Z" style="fill:white;fill-opacity:0.36;"/>
                            </g>
                            <g transform="matrix(2.0428,-0.32831,0.33845,0.697594,-12954.8,2298.18)">
                                <ellipse cx="6675.84" cy="676.003" rx="27.843" ry="20.003" style="fill:white;"/>
                            </g>
                            <g transform="matrix(0.844129,-0.0324102,0.0393518,0.339514,-4650.51,558.013)">
                                <ellipse cx="6675.84" cy="676.003" rx="27.843" ry="20.003" style="fill:white;"/>
                            </g>
                            <g transform="matrix(1.51969,0,0,0.874659,-9136.4,0)">
                                <path d="M6761.05,660.842C6864.78,720.604 6796.15,857.262 6761.01,887.251C6570.44,1049.89 6521.05,875.243 6522.02,827.662C6524.38,712.04 6555.95,659.679 6595.88,641.771C6635.79,623.868 6709.63,631.225 6761.05,660.842Z" style="fill:white;fill-opacity:0.36;"/>
                            </g>
                            <g transform="matrix(1.50007,-0.409182,0.387758,0.470892,-9222.51,2657.43)">
                                <ellipse cx="6675.84" cy="676.003" rx="27.843" ry="20.003" style="fill:white;"/>
                            </g>
                            <g transform="matrix(1.51969,0,0,0.874659,-9136.4,0)">
                                <path d="M7011.04,634.489C7036.24,676.488 7075.11,733.339 7076.98,824.662C7079.2,933.493 6998.49,1060.18 6956,1100.01C6921.82,1132.06 6871.33,1139.55 6778.5,1140.01L6776.33,1140C6723.93,1139.63 6701.09,1129.34 6672.8,1119.76C6651.77,1112.63 6583.85,1021.95 6597.74,1027.02C6674.42,1055.03 6749.57,1055.58 6812.44,1039.73C6887.46,1020.82 6946.85,955.835 6982.85,887.013C7013.28,828.839 7028.43,773.551 7011.04,634.489Z" style="fill-opacity:0.31;"/>
                            </g>
                        </g>
                    </g>
                </g>
            </g>
        </g>
    </g>
</svg>
